<?xml version="1.0" encoding="UTF-8"?>
<svg width="1200px" height="1200px" viewBox="0 0 1200 1200" version="1.1" xmlns="http://www.w3.org/2000/svg" xmlns:xlink="http://www.w3.org/1999/xlink">
    <title>chat-icon</title>
    <g id="🟠-Home" stroke="none" stroke-width="1" fill="none" fill-rule="evenodd">
        <g id="chat-icon" fill-rule="nonzero">
            <circle id="Oval" cx="600" cy="600" r="600"></circle>
            <path d="M829.34,439.09 L746.48,439.09 L746.48,383.63 C746.48,357.92 725.42,337 699.54,337 L370.66,337 C344.79,337 323.74,357.91 323.74,383.61 L323.74,591.87 C323.74,622.25 348.62,646.96 379.2,646.96 L442.03,646.96 L432.59,722.46 L432.59,723.42 C432.59,726.92 433.45,730.28 435.02,733.26 C442,750.87 459.02,762.67 478.64,762.67 L643.85,762.67 L737.05,858.9 L737.8,859.4 C741.39,861.79 745.52,863 749.67,863 C753.12,863 756.57,862.17 759.73,860.49 C766.68,856.79 771,849.63 771,841.79 L771,840.83 L757.82,762.68 L820.78,762.68 C851.36,762.68 876.240014,737.97 876.240014,707.59 L876.240014,485.7 C876.26,460 855.21,439.09 829.34,439.09 Z M379.2,621.48 C362.73,621.48 349.33,608.2 349.33,591.87 L349.33,383.61 C349.33,371.96 358.89,362.48 370.65,362.48 L699.54,362.48 C711.31,362.48 720.89,371.97 720.89,383.63 L720.89,600.33 C720.89,611.99 711.31,621.48 699.54,621.48 L546.21,621.48 L460.07,712.1 L468.43,643.64 L468.43,642.68 C468.43,630.99 458.87,621.48 447.11,621.48 L379.2,621.48 L379.2,621.48 Z M850.67,707.58 C850.67,723.91 837.27,737.19 820.8,737.19 L752.77,737.19 C741.01,737.19 731.45,746.7 731.45,758.39 L731.45,759.35 L743.56,830.45 L653.67,737.18 L478.65,737.18 C476.22,737.18 473.85,736.76 471.64,735.98 L556.02,646.94 L699.55,646.94 C725.43,646.94 746.49,626.02 746.49,600.31 L746.49,464.57 L829.35,464.57 C841.11,464.57 850.67,474.05 850.67,485.7 L850.67,707.58 L850.67,707.58 Z" id="Shape" fill="#000000"></path>
        </g>
    </g>
</svg>