<?xml version="1.0" encoding="utf-8"?>
<!-- Generator: Adobe Illustrator 26.0.3, SVG Export Plug-In . SVG Version: 6.00 Build 0)  -->
<svg version="1.1" id="ART" xmlns="http://www.w3.org/2000/svg" xmlns:xlink="http://www.w3.org/1999/xlink" x="0px" y="0px"
	 viewBox="0 0 867.7 143.8" style="enable-background:new 0 0 867.7 143.8;" xml:space="preserve">
<g>
	<polygon points="863.9,69.1 798.9,69.1 798.9,6.1 796.7,6.1 796.7,69.1 731.7,69.1 731.7,71.4 796.7,71.4 796.7,138.4 798.9,138.4 
		798.9,71.4 863.9,71.4 	"/>
	<g>
		<polygon points="322.2,137.2 322.2,137.4 302,137.4 302,82.1 		"/>
		<path d="M322.3,137.4l-0.1-0.2L302,82.1L272.6,1.7l0-0.1h-1l-10.2,27.9l-18.6,50.8l-0.1,0c-6.5-5.7-15.6-9.2-27.1-10.5l-3.5-0.4
			l3.5-0.4c18.9-3.4,31.7-15.2,31.7-29.5c0-19.6-18.6-33.3-45.2-33.3h-55.4v1h16.1v101.2L123.6,1.7l0-0.1h-1l-10.2,27.9L72.8,137.1
			l-0.2,0c-0.7,0.1-1.3,0.2-2,0.2c-1,0.1-2,0.1-3,0.1H27.7L103.6,7.1l0.6-1H11.3v40.3h1C12.5,26.8,24,7.1,49.5,7.1h30.7L3.8,138.4
			h103V99.8h-1c-0.1,17.1-9.9,33.4-31.2,37l-0.7,0.1l16.2-44.2h45.4l16.4,44.7h-16.1v1h63.3v-1h-16.2V70.1h18.7
			c19,0,29.9,8.4,29.9,23.1v12c0,1.3,0.1,3.2,0.2,4.8v0.1l-10,27.4h-13.1v1h27.2v-1h-13l9.1-24.9c0,0.2,0,0.4,0,0.4l0.3,2.2l0.2,1.5
			c1.5,9.2,5.1,16,10.5,20.1l0.8,0.6c4.2,2.9,9.3,4.3,15.3,4.3c8,0,13.3-2,17.7-6.6l-0.6-0.6c-4,3.7-7.5,5.2-11.7,5.2
			c-7.3,0-11.1-8.7-11.1-17.3v-16.7c0-4.4-0.6-8.5-1.9-12.2l-0.2-0.5v0h33.2l16.4,44.7h-16.1v1h54.8v-1H322.3z M90.5,91.8l22.4-60.9
			l22.3,60.9H90.5z M182.9,69.1v-62h14.3c19.1,0,29.1,11.2,29.1,32.5c0,22.6-5.8,29.5-24.7,29.5H182.9z M250.9,91.8l-0.1-0.2
			c-1.5-3.6-3.6-6.8-6.3-9.6l-0.9-0.9l-0.1-0.1l18.4-50.1l22.3,60.9H250.9z"/>
		<path d="M740.4,100.2c0,20.4-12.1,37.3-42.5,37.3h-22.3V70.7h8.1c15.4,0,24,8.8,24,21.4h1V47.9h-1c0,13-8.7,21.8-24,21.8h-8.1V7.1
			h23c23.6,0,33.2,15.6,33.2,33.3h1V6.2H614.7l-35.4,103.7l-39-103.7h-39.9v1h17.4v57.3c-3.4-34.5-29.1-61.2-61-61.2
			c-29.7,0-54,23.1-60,54.1V7.1h17.3v-1h-54.8v1h17.3v62h-54.5v-62h17.3v-1h-54.8v1H302v74.9l20.2,55.1V70.1h54.5v67.3h-17.3v1h54.8
			v-1h-17.3v-50c6,31,30.3,54.1,60,54.1c32,0,57.6-26.7,61-61.2v57.2h-18.6v1h38.2v-1h-18.6V7.2l49.9,135.1h0.6L614.5,9.7v127.7
			h-17.8v1h144.7v-38.2H740.4z M481,132.9c-6.5,5.6-14.1,7.6-24.1,7.6c-9.9,0-17.6-2-24-7.6c-10.3-8.8-15.8-27.7-15.8-60.5
			c0-32.9,5.5-51.7,15.8-60.5c6.5-5.6,14.1-7.6,24-7.6c9.9,0,17.6,2,24.1,7.6c10.1,8.8,15.8,27.7,15.8,60.5
			C496.7,105.3,491.1,124.1,481,132.9z M655.2,137.4h-20.5V7.1h20.5V137.4z"/>
	</g>
</g>
</svg>
